<svg width="48" height="48" viewBox="0 0 48 48" fill="none" xmlns="http://www.w3.org/2000/svg">
<rect width="48" height="48" fill="#FF5555"/>
<path d="M32 7.87401C28.494 6.13454 24.5166 5.58519 20.6703 6.30917C16.8241 7.03315 13.3186 8.99102 10.685 11.8862C8.05134 14.7813 6.43308 18.4559 6.07536 22.3533C5.71764 26.2507 6.63996 30.1586 8.70257 33.4847C10.7652 36.8109 13.8557 39.3742 17.5059 40.7862C21.1561 42.1982 25.1671 42.3821 28.9311 41.3099C32.6952 40.2377 36.0073 37.9679 38.3655 34.8444C40.7238 31.7209 41.9997 27.9138 42 24" stroke="black" stroke-width="2" stroke-linecap="round" stroke-linejoin="round"/>
<path d="M22 24C22 24.5304 22.2107 25.0391 22.5858 25.4142C22.9609 25.7893 23.4696 26 24 26C24.5304 26 25.0391 25.7893 25.4142 25.4142C25.7893 25.0391 26 24.5304 26 24C26 23.4696 25.7893 22.9609 25.4142 22.5858C25.0391 22.2107 24.5304 22 24 22C23.4696 22 22.9609 22.2107 22.5858 22.5858C22.2107 22.9609 22 23.4696 22 24ZM38 8C38 8.53043 38.2107 9.03914 38.5858 9.41421C38.9609 9.78929 39.4696 10 40 10C40.5304 10 41.0391 9.78929 41.4142 9.41421C41.7893 9.03914 42 8.53043 42 8C42 7.46957 41.7893 6.96086 41.4142 6.58579C41.0391 6.21071 40.5304 6 40 6C39.4696 6 38.9609 6.21071 38.5858 6.58579C38.2107 6.96086 38 7.46957 38 8Z" stroke="black" stroke-width="2" stroke-linecap="round" stroke-linejoin="round"/>
<path d="M40 8L33 28L28 32" stroke="black" stroke-width="2" stroke-linecap="round" stroke-linejoin="round"/>
</svg>
