<svg width="51" height="51" viewBox="0 0 51 51" fill="none" xmlns="http://www.w3.org/2000/svg">
<path d="M12.75 46.75C11.5812 46.75 10.5811 46.3342 9.7495 45.5026C8.91792 44.671 8.50142 43.6702 8.5 42.5V21.25C8.5 20.0813 8.9165 19.0811 9.7495 18.2495C10.5825 17.4179 11.5827 17.0014 12.75 17H14.875V12.75C14.875 9.81042 15.9113 7.30504 17.9839 5.23388C20.0565 3.16271 22.5618 2.12642 25.5 2.125C28.4382 2.12358 30.9443 3.15988 33.0182 5.23388C35.0923 7.30788 36.1278 9.81325 36.125 12.75V17H38.25C39.4188 17 40.4196 17.4165 41.2526 18.2495C42.0856 19.0825 42.5014 20.0827 42.5 21.25V42.5C42.5 43.6688 42.0842 44.6696 41.2526 45.5026C40.421 46.3356 39.4202 46.7514 38.25 46.75H12.75ZM25.5 36.125C26.6688 36.125 27.6696 35.7092 28.5026 34.8776C29.3356 34.046 29.7514 33.0452 29.75 31.875C29.7486 30.7048 29.3328 29.7047 28.5026 28.8745C27.6725 28.0443 26.6716 27.6278 25.5 27.625C24.3284 27.6222 23.3283 28.0387 22.4995 28.8745C21.6708 29.7103 21.2542 30.7105 21.25 31.875C21.2458 33.0395 21.6623 34.0404 22.4995 34.8776C23.3368 35.7149 24.3369 36.1307 25.5 36.125ZM19.125 17H31.875V12.75C31.875 10.9792 31.2552 9.47396 30.0156 8.23438C28.776 6.99479 27.2708 6.375 25.5 6.375C23.7292 6.375 22.224 6.99479 20.9844 8.23438C19.7448 9.47396 19.125 10.9792 19.125 12.75V17Z" fill="black"/>
</svg>
