<svg width="32" height="32" viewBox="0 0 32 32" fill="none" xmlns="http://www.w3.org/2000/svg">
<g clip-path="url(#clip0_2004_182)">
<path d="M27.115 6.283C26.0585 5.498 24.605 4.9835 23.5145 4.627C21.405 3.938 18.244 3.5765 15.9995 3.5035V3.5C15.987 3.5 15.973 3.502 15.961 3.502C15.9485 3.502 15.935 3.5 15.922 3.5V3.504C13.6785 3.577 10.517 3.9385 8.407 4.6275C7.317 4.984 5.862 5.4985 4.806 6.2835C2.4595 6.4065 0.212498 9.3985 0.0144975 10.757C-0.196003 12.2095 1.6685 13.6465 4.185 13.9685C6.695 14.288 8.904 13.369 9.1165 11.9165C9.201 11.3355 9.0055 10.3735 8.5855 9.4065C10.901 8.4365 13.7075 7.949 15.96 7.8555C18.2115 7.949 21.018 8.4365 23.3345 9.4065C22.914 10.3725 22.7195 11.3345 22.803 11.9165C23.0155 13.369 25.223 14.288 27.7355 13.9685C30.2505 13.646 32.117 12.2095 31.9055 10.757C31.708 9.3985 29.4615 6.406 27.1135 6.283" fill="#BCBEC0"/>
<path d="M29.379 27.8045V19.976L21.725 10.791V7.72949H19.175V9.56999H12.677V7.72949H10.126V10.791L2.47101 19.976V27.8045H29.379Z" fill="#D1D3D4"/>
<path d="M13.38 15.625C13.38 16.1555 13.0085 16.5835 12.5545 16.5835H11.1395C10.6835 16.5835 10.314 16.156 10.314 15.625V14.4415C10.314 13.914 10.6835 13.4865 11.1395 13.4865H12.5545C13.0085 13.4865 13.38 13.914 13.38 14.4415V15.625ZM17.455 15.625C17.455 16.1555 17.086 16.5835 16.631 16.5835H15.2165C14.7605 16.5835 14.391 16.156 14.391 15.625V14.4415C14.391 13.914 14.7605 13.4865 15.2165 13.4865H16.631C17.086 13.4865 17.455 13.914 17.455 14.4415V15.625ZM21.4405 15.625C21.4405 16.1555 21.069 16.5835 20.614 16.5835H19.2C18.744 16.5835 18.3745 16.156 18.3745 15.625V14.4415C18.3745 13.914 18.744 13.4865 19.2 13.4865H20.614C21.069 13.4865 21.4405 13.914 21.4405 14.4415V15.625ZM13.427 19.67C13.427 20.199 13.0555 20.6265 12.6015 20.6265H11.186C10.73 20.6265 10.3605 20.199 10.3605 19.67V18.4855C10.3605 17.959 10.73 17.531 11.186 17.531H12.6015C13.0555 17.531 13.427 17.959 13.427 18.4855V19.67ZM17.505 19.67C17.505 20.199 17.1365 20.6265 16.6805 20.6265H15.2665C14.8105 20.6265 14.441 20.199 14.441 19.67V18.4855C14.441 17.959 14.8105 17.531 15.2665 17.531H16.6805C17.1365 17.531 17.505 17.959 17.505 18.4855V19.67ZM21.4875 19.67C21.4875 20.199 21.1165 20.6265 20.6615 20.6265H19.247C18.7915 20.6265 18.422 20.199 18.422 19.67V18.4855C18.422 17.959 18.7915 17.531 19.247 17.531H20.6615C21.1165 17.531 21.4875 17.959 21.4875 18.4855V19.67ZM13.474 23.836C13.474 24.364 13.1025 24.7925 12.6485 24.7925H11.233C10.777 24.7925 10.4075 24.364 10.4075 23.836V22.652C10.4075 22.125 10.777 21.697 11.233 21.697H12.6485C13.1025 21.697 13.474 22.125 13.474 22.652V23.836ZM17.55 23.836C17.55 24.364 17.1795 24.7925 16.7245 24.7925H15.31C14.854 24.7925 14.4845 24.364 14.4845 23.836V22.652C14.4845 22.125 14.854 21.697 15.31 21.697H16.7245C17.1795 21.697 17.55 22.125 17.55 22.652V23.836ZM21.535 23.836C21.535 24.364 21.1645 24.7925 20.7095 24.7925H19.2955C18.8385 24.7925 18.47 24.364 18.47 23.836V22.652C18.47 22.125 18.8385 21.697 19.2955 21.697H20.7095C21.1645 21.697 21.535 22.125 21.535 22.652V23.836Z" fill="#E7E6E6"/>
</g>
<defs>
<clipPath id="clip0_2004_182">
<rect width="32" height="32" fill="white"/>
</clipPath>
</defs>
</svg>
