<svg width="20" height="20" viewBox="0 0 20 20" fill="none" xmlns="http://www.w3.org/2000/svg">
<path fill-rule="evenodd" clip-rule="evenodd" d="M1.57975 9.6869C1.57975 14.3935 4.92571 17.6003 8.68405 18.2636C8.78629 18.2817 8.88403 18.3201 8.9717 18.3767C9.05937 18.4333 9.13525 18.507 9.19501 18.5935C9.25478 18.68 9.29725 18.7776 9.32 18.8809C9.34275 18.9841 9.34534 19.0909 9.32762 19.1952C9.3099 19.2995 9.27222 19.3992 9.21673 19.4886C9.16123 19.578 9.08901 19.6554 9.00419 19.7163C8.91937 19.7773 8.82361 19.8206 8.72238 19.8438C8.62115 19.867 8.51642 19.8696 8.41419 19.8516C4.00091 19.0723 0 15.2779 0 9.6869C0 7.3104 1.05973 5.4426 2.29685 4.02319C3.18375 3.0058 4.198 2.17859 5.01364 1.54619H2.53335C2.33231 1.54619 2.1395 1.46474 1.99734 1.31976C1.85518 1.17477 1.77532 0.978134 1.77532 0.773096C1.77532 0.568058 1.85518 0.371418 1.99734 0.226435C2.1395 0.0814511 2.33231 0 2.53335 0H7.08156C7.28261 0 7.47542 0.0814511 7.61758 0.226435C7.75974 0.371418 7.8396 0.568058 7.8396 0.773096V5.41167C7.8396 5.61671 7.75974 5.81335 7.61758 5.95833C7.47542 6.10332 7.28261 6.18477 7.08156 6.18477C6.88052 6.18477 6.68771 6.10332 6.54555 5.95833C6.40339 5.81335 6.32353 5.61671 6.32353 5.41167V2.5574L6.32201 2.56049C5.45482 3.22536 4.3966 4.0402 3.47938 5.09316C2.39539 6.3363 1.57975 7.84074 1.57975 9.6869ZM18.4203 10.3131C18.4203 5.65597 15.1455 2.46927 11.4357 1.75802C11.3323 1.74013 11.2335 1.70141 11.1449 1.64414C11.0563 1.58686 10.9798 1.51217 10.9198 1.42442C10.8599 1.33667 10.8176 1.23762 10.7956 1.13305C10.7736 1.02848 10.7722 0.920477 10.7915 0.815349C10.8108 0.710222 10.8505 0.610072 10.9082 0.520743C10.9659 0.431415 11.0404 0.354695 11.1275 0.295062C11.2145 0.235428 11.3124 0.194074 11.4153 0.173413C11.5182 0.152751 11.6241 0.153195 11.7268 0.17472C16.084 1.00966 20 4.78237 20 10.3131C20 12.6896 18.9403 14.5559 17.7032 15.9768C16.8163 16.9942 15.802 17.8214 14.9864 18.4538H17.4666C17.6677 18.4538 17.8605 18.5353 18.0027 18.6802C18.1448 18.8252 18.2247 19.0219 18.2247 19.2269C18.2247 19.4319 18.1448 19.6286 18.0027 19.7736C17.8605 19.9185 17.6677 20 17.4666 20H12.9184C12.7174 20 12.5246 19.9185 12.3824 19.7736C12.2403 19.6286 12.1604 19.4319 12.1604 19.2269V14.5883C12.1604 14.3833 12.2403 14.1866 12.3824 14.0417C12.5246 13.8967 12.7174 13.8152 12.9184 13.8152C13.1195 13.8152 13.3123 13.8967 13.4544 14.0417C13.5966 14.1866 13.6765 14.3833 13.6765 14.5883V17.4411H13.6795C14.5452 16.7731 15.6049 15.9598 16.5206 14.9053C17.6046 13.6637 18.4203 12.1608 18.4203 10.3131Z" fill="white"/>
</svg>
